HIERARCHY
ROOT Hips
{
	OFFSET 0.000000 0.000000 0.000000
	CHANNELS 6 Xposition Yposition Zposition Zrotation Yrotation Xrotation 
	JOINT Spine1
	{
		OFFSET -0.013727 5.003763 -0.053727
		CHANNELS 3 Zrotation Yrotation Xrotation
		JOINT Spine2
		{
			OFFSET -0.000000 7.125302 -0.029825
			CHANNELS 3 Zrotation Yrotation Xrotation
			JOINT Chest
			{
				OFFSET -0.000001 7.550065 -0.815971
				CHANNELS 3 Zrotation Yrotation Xrotation
				JOINT Neck1
				{
					OFFSET -0.181677 26.311296 -0.553348
					CHANNELS 3 Zrotation Yrotation Xrotation
					JOINT Neck2
					{
						OFFSET -0.000003 7.709399 2.302586
						CHANNELS 3 Zrotation Yrotation Xrotation
						JOINT Head
						{
							OFFSET -0.000005 6.128912 1.953707
							CHANNELS 3 Zrotation Yrotation Xrotation
							JOINT HeadEnd
							{
								OFFSET 0.003598 16.065401 -1.835379
								CHANNELS 3 Zrotation Yrotation Xrotation
								End Site
								{
									OFFSET 0.000000 0.000000 0.000000
								}
							}
							JOINT Jaw
							{
								OFFSET 0.002637 0.475591 3.094941
								CHANNELS 3 Zrotation Yrotation Xrotation
								End Site
								{
									OFFSET 0.000000 0.000000 0.000000
								}
							}
							JOINT LeftEye
							{
								OFFSET 3.206381 5.380208 7.586884
								CHANNELS 3 Zrotation Yrotation Xrotation
								End Site
								{
									OFFSET 0.000000 0.000000 0.000000
								}
							}
							JOINT RightEye
							{
								OFFSET -3.222440 5.361867 7.558233
								CHANNELS 3 Zrotation Yrotation Xrotation
								End Site
								{
									OFFSET 0.000000 0.000000 0.000000
								}
							}
						}
					}
				}
				JOINT LeftShoulder
				{
					OFFSET 1.621652 23.237164 5.113413
					CHANNELS 3 Zrotation Yrotation Xrotation
					JOINT LeftArm
					{
						OFFSET 14.919845 0.000001 -5.502326
						CHANNELS 3 Zrotation Yrotation Xrotation
						JOINT LeftForeArm
						{
							OFFSET 28.739309 0.000002 -0.002588
							CHANNELS 3 Zrotation Yrotation Xrotation
							JOINT LeftHand
							{
								OFFSET 27.093979 -0.000002 0.002608
								CHANNELS 3 Zrotation Yrotation Xrotation
								JOINT LeftHandThumb1
								{
									OFFSET 2.276480 -1.392045 3.191413
									CHANNELS 3 Zrotation Yrotation Xrotation
									JOINT LeftHandThumb2
									{
										OFFSET 4.012841 -1.828126 1.641655
										CHANNELS 3 Zrotation Yrotation Xrotation
										JOINT LeftHandThumb3
										{
											OFFSET 2.798516 0.000001 -0.000003
											CHANNELS 3 Zrotation Yrotation Xrotation
											JOINT LeftHandThumbEnd
											{
												OFFSET 3.180791 -0.000002 0.000002
												CHANNELS 3 Zrotation Yrotation Xrotation
												End Site
												{
													OFFSET 0.000000 0.000000 0.000000
												}
											}
										}
									}
								}
								JOINT LeftHandIndex1
								{
									OFFSET 3.247553 -0.531998 2.296169
									CHANNELS 3 Zrotation Yrotation Xrotation
									JOINT LeftHandIndex2
									{
										OFFSET 6.364580 0.012063 0.178599
										CHANNELS 3 Zrotation Yrotation Xrotation
										JOINT LeftHandIndex3
										{
											OFFSET 3.662366 0.000001 0.000000
											CHANNELS 3 Zrotation Yrotation Xrotation
											JOINT LeftHandIndex4
											{
												OFFSET 2.329242 0.000003 0.000004
												CHANNELS 3 Zrotation Yrotation Xrotation
												JOINT LeftHandIndexEnd
												{
													OFFSET 2.759619 -0.180539 -0.113023
													CHANNELS 3 Zrotation Yrotation Xrotation
													End Site
													{
														OFFSET 0.000000 0.000000 0.000000
													}
												}
											}
										}
									}
								}
								JOINT LeftHandMiddle1
								{
									OFFSET 3.163499 0.240981 1.000332
									CHANNELS 3 Zrotation Yrotation Xrotation
									JOINT LeftHandMiddle2
									{
										OFFSET 6.190778 -0.259276 -1.002548
										CHANNELS 3 Zrotation Yrotation Xrotation
										JOINT LeftHandMiddle3
										{
											OFFSET 4.356523 -0.000006 0.000000
											CHANNELS 3 Zrotation Yrotation Xrotation
											JOINT LeftHandMiddle4
											{
												OFFSET 2.996875 -0.000007 0.000000
												CHANNELS 3 Zrotation Yrotation Xrotation
												JOINT LeftHandMiddleEnd
												{
													OFFSET 2.304294 -0.294572 -0.031739
													CHANNELS 3 Zrotation Yrotation Xrotation
													End Site
													{
														OFFSET 0.000000 0.000000 0.000000
													}
												}
											}
										}
									}
								}
								JOINT LeftHandRing1
								{
									OFFSET 2.882642 -0.053650 -0.322543
									CHANNELS 3 Zrotation Yrotation Xrotation
									JOINT LeftHandRing2
									{
										OFFSET 5.854543 -0.486203 -1.373842
										CHANNELS 3 Zrotation Yrotation Xrotation
										JOINT LeftHandRing3
										{
											OFFSET 4.350580 0.000000 0.000003
											CHANNELS 3 Zrotation Yrotation Xrotation
											JOINT LeftHandRing4
											{
												OFFSET 2.651324 0.000008 0.000003
												CHANNELS 3 Zrotation Yrotation Xrotation
												JOINT LeftHandRingEnd
												{
													OFFSET 1.936110 0.077684 -0.000070
													CHANNELS 3 Zrotation Yrotation Xrotation
													End Site
													{
														OFFSET 0.000000 0.000000 0.000000
													}
												}
											}
										}
									}
								}
								JOINT LeftHandPinky1
								{
									OFFSET 2.865500 -0.310004 -1.600378
									CHANNELS 3 Zrotation Yrotation Xrotation
									JOINT LeftHandPinky2
									{
										OFFSET 5.087853 -1.331141 -1.771231
										CHANNELS 3 Zrotation Yrotation Xrotation
										JOINT LeftHandPinky3
										{
											OFFSET 3.070975 0.000004 0.000001
											CHANNELS 3 Zrotation Yrotation Xrotation
											JOINT LeftHandPinky4
											{
												OFFSET 1.549668 -0.000000 0.000001
												CHANNELS 3 Zrotation Yrotation Xrotation
												JOINT LeftHandPinkyEnd
												{
													OFFSET 1.944895 -0.157802 0.057219
													CHANNELS 3 Zrotation Yrotation Xrotation
													End Site
													{
														OFFSET 0.000000 0.000000 0.000000
													}
												}
											}
										}
									}
								}
							}
						}
					}
				}
				JOINT RightShoulder
				{
					OFFSET -1.380118 23.180307 5.214157
					CHANNELS 3 Zrotation Yrotation Xrotation
					JOINT RightArm
					{
						OFFSET -15.037197 0.000012 -5.545605
						CHANNELS 3 Zrotation Yrotation Xrotation
						JOINT RightForeArm
						{
							OFFSET -28.736639 0.000002 -0.002597
							CHANNELS 3 Zrotation Yrotation Xrotation
							JOINT RightHand
							{
								OFFSET -27.133617 -0.000001 0.002612
								CHANNELS 3 Zrotation Yrotation Xrotation
								JOINT RightHandThumb1
								{
									OFFSET -2.274037 -1.383990 3.163127
									CHANNELS 3 Zrotation Yrotation Xrotation
									JOINT RightHandThumb2
									{
										OFFSET -4.011429 -1.827467 1.640914
										CHANNELS 3 Zrotation Yrotation Xrotation
										JOINT RightHandThumb3
										{
											OFFSET -2.794934 -0.000003 -0.000003
											CHANNELS 3 Zrotation Yrotation Xrotation
											JOINT RightHandThumbEnd
											{
												OFFSET -3.183856 0.000002 -0.000001
												CHANNELS 3 Zrotation Yrotation Xrotation
												End Site
												{
													OFFSET 0.000000 0.000000 0.000000
												}
											}
										}
									}
								}
								JOINT RightHandIndex1
								{
									OFFSET -3.253270 -0.520059 2.282866
									CHANNELS 3 Zrotation Yrotation Xrotation
									JOINT RightHandIndex2
									{
										OFFSET -6.341917 0.012473 0.178265
										CHANNELS 3 Zrotation Yrotation Xrotation
										JOINT RightHandIndex3
										{
											OFFSET -3.654875 -0.000009 -0.000001
											CHANNELS 3 Zrotation Yrotation Xrotation
											JOINT RightHandIndex4
											{
												OFFSET -2.327586 -0.000000 -0.000000
												CHANNELS 3 Zrotation Yrotation Xrotation
												JOINT RightHandIndexEnd
												{
													OFFSET -2.761789 -0.180657 -0.113078
													CHANNELS 3 Zrotation Yrotation Xrotation
													End Site
													{
														OFFSET 0.000000 0.000000 0.000000
													}
												}
											}
										}
									}
								}
								JOINT RightHandMiddle1
								{
									OFFSET -3.168107 0.246593 1.001030
									CHANNELS 3 Zrotation Yrotation Xrotation
									JOINT RightHandMiddle2
									{
										OFFSET -6.180830 -0.258835 -1.000896
										CHANNELS 3 Zrotation Yrotation Xrotation
										JOINT RightHandMiddle3
										{
											OFFSET -4.348905 -0.000000 -0.000000
											CHANNELS 3 Zrotation Yrotation Xrotation
											JOINT RightHandMiddle4
											{
												OFFSET -3.000243 -0.000003 -0.000002
												CHANNELS 3 Zrotation Yrotation Xrotation
												JOINT RightHandMiddleEnd
												{
													OFFSET -2.302517 -0.294372 -0.031705
													CHANNELS 3 Zrotation Yrotation Xrotation
													End Site
													{
														OFFSET 0.000000 0.000000 0.000000
													}
												}
											}
										}
									}
								}
								JOINT RightHandRing1
								{
									OFFSET -2.885694 -0.067952 -0.308859
									CHANNELS 3 Zrotation Yrotation Xrotation
									JOINT RightHandRing2
									{
										OFFSET -5.854197 -0.486133 -1.373732
										CHANNELS 3 Zrotation Yrotation Xrotation
										JOINT RightHandRing3
										{
											OFFSET -4.338814 -0.000003 0.000001
											CHANNELS 3 Zrotation Yrotation Xrotation
											JOINT RightHandRing4
											{
												OFFSET -2.654906 -0.000005 0.000003
												CHANNELS 3 Zrotation Yrotation Xrotation
												JOINT RightHandRingEnd
												{
													OFFSET -1.933570 0.077524 -0.000052
													CHANNELS 3 Zrotation Yrotation Xrotation
													End Site
													{
														OFFSET 0.000000 0.000000 0.000000
													}
												}
											}
										}
									}
								}
								JOINT RightHandPinky1
								{
									OFFSET -2.866430 -0.342798 -1.584145
									CHANNELS 3 Zrotation Yrotation Xrotation
									JOINT RightHandPinky2
									{
										OFFSET -5.091371 -1.332054 -1.772385
										CHANNELS 3 Zrotation Yrotation Xrotation
										JOINT RightHandPinky3
										{
											OFFSET -3.062666 -0.000007 0.000000
											CHANNELS 3 Zrotation Yrotation Xrotation
											JOINT RightHandPinky4
											{
												OFFSET -1.546527 0.000005 -0.000003
												CHANNELS 3 Zrotation Yrotation Xrotation
												JOINT RightHandPinkyEnd
												{
													OFFSET -1.945122 -0.157721 0.057211
													CHANNELS 3 Zrotation Yrotation Xrotation
													End Site
													{
														OFFSET 0.000000 0.000000 0.000000
													}
												}
											}
										}
									}
								}
							}
						}
					}
				}
			}
		}
	}
	JOINT LeftLeg
	{
		OFFSET 10.043214 -8.434526 2.595655
		CHANNELS 3 Zrotation Yrotation Xrotation
		JOINT LeftShin
		{
			OFFSET -0.000002 -43.221752 -0.802913
			CHANNELS 3 Zrotation Yrotation Xrotation
			JOINT LeftFoot
			{
				OFFSET 0.000001 -42.155094 -3.481523
				CHANNELS 3 Zrotation Yrotation Xrotation
				JOINT LeftToeBase
				{
					OFFSET -0.000000 -5.059475 13.231529
					CHANNELS 3 Zrotation Yrotation Xrotation
					JOINT LeftToeEnd
					{
						OFFSET -0.009607 -1.647616 6.513017
						CHANNELS 3 Zrotation Yrotation Xrotation
						End Site
						{
							OFFSET 0.000000 0.000000 0.000000
						}
					}
				}
			}
		}
	}
	JOINT RightLeg
	{
		OFFSET -10.047277 -8.295259 2.620317
		CHANNELS 3 Zrotation Yrotation Xrotation
		JOINT RightShin
		{
			OFFSET 0.000001 -43.362209 -0.805556
			CHANNELS 3 Zrotation Yrotation Xrotation
			JOINT RightFoot
			{
				OFFSET 0.000002 -42.117393 -3.478400
				CHANNELS 3 Zrotation Yrotation Xrotation
				JOINT RightToeBase
				{
					OFFSET -0.000001 -5.079609 13.284196
					CHANNELS 3 Zrotation Yrotation Xrotation
					JOINT RightToeEnd
					{
						OFFSET 0.009533 -1.634383 6.460591
						CHANNELS 3 Zrotation Yrotation Xrotation
						End Site
						{
							OFFSET 0.000000 0.000000 0.000000
						}
					}
				}
			}
		}
	}
}
MOTION
Frames: 4
Frame Time: 0.033333
8.636469 95.905197 230.859833 0.039217 -0.288967 1.243208 0.463985 0.319891 1.303323 -0.171448 0.656321 -4.118955 1.109246 -0.628652 12.891876 10.605656 -3.087582 10.596316 -4.128965 -13.014198 -3.102862 3.524847 -16.294104 -14.080407 0.000077 -0.000021 0.000006 0.008916 -0.011353 -0.016911 0.700555 -3.719848 -10.652773 -0.690067 3.683864 -10.645965 2.868979 3.817676 10.960209 -69.478767 -60.236877 22.431940 178.534546 -37.696152 -179.936447 8.599957 -5.505120 -0.739997 -5.882101 9.861279 0.702588 -10.936861 -0.360575 7.156197 0.000001 8.774812 -0.000002 -15.968144 18.329781 6.211981 -1.844031 2.498502 -2.507277 -10.163589 4.678939 4.621105 -20.975998 -0.000003 0.000003 -21.226254 2.451693 -3.593993 0.000000 -0.000004 -0.000001 -1.362680 2.240797 -0.746324 -21.334896 0.584909 3.008319 -13.821197 -0.000002 0.000001 -23.887133 -0.249078 -0.839482 -59.945583 2.429027 -1.873587 -0.294025 1.679686 0.833256 -14.218194 0.093215 1.300580 -34.212002 -0.287563 0.967169 -20.033180 0.964535 1.212841 0.000000 0.000002 0.000000 -3.440387 0.788232 0.501655 -15.928169 -3.167306 2.999702 -6.338815 0.000000 0.000000 -18.123415 3.648177 -4.905662 -0.000004 0.000001 -0.000001 0.741146 15.739837 9.312285 18.322870 25.133274 -53.329350 -178.971497 62.515911 -178.926865 -10.015474 7.966791 -5.527694 2.243541 -5.255033 -3.180153 14.282877 -0.826594 6.952497 -0.000001 -12.690590 -0.000000 15.372811 -17.260406 2.911588 1.665666 -1.955920 -2.878296 4.727795 -4.170582 4.993917 11.020513 0.000005 -0.000003 12.109032 -3.735709 -2.866778 0.000001 -0.000001 -0.000000 1.291985 -1.928548 -1.498089 14.800111 0.567469 3.865602 14.242551 -1.341736 -6.660650 19.631941 0.143926 -0.648244 48.483448 -1.025518 -6.356290 0.353028 -1.511148 -0.031941 20.222771 3.684305 2.316627 18.787245 0.000005 -0.000001 10.751610 -0.479866 1.397903 0.000000 -0.000001 0.000000 3.273803 0.305948 -0.580110 21.486794 11.830362 2.266133 8.162917 0.000002 0.000001 18.399050 -3.798980 -4.940567 0.000003 0.000001 -0.000001 13.018998 2.152775 -8.690036 -0.120198 -0.903828 28.915724 -17.557959 4.058229 -14.201308 1.681409 -2.110247 1.605447 -0.000000 0.000000 0.000002 -13.614226 -6.429732 -22.540031 0.273072 0.810856 25.068905 13.833783 -1.920904 0.075003 -1.463407 0.878774 2.961019 0.000000 0.000000 -0.000001 
8.116295 96.045471 231.393936 0.135590 0.052801 1.405278 0.453010 0.297759 1.142524 -0.205601 0.575787 -4.195836 1.005642 -0.729139 12.846235 10.610141 -3.146437 10.554172 -4.131623 -13.131390 -3.096272 3.584056 -16.480505 -14.121977 0.000077 -0.000021 0.000006 0.006652 0.000389 -0.016941 0.691758 -3.684314 -10.644919 -0.688814 3.699278 -10.641540 2.939954 3.684649 10.912880 -69.813904 -60.166080 22.637070 178.466461 -37.603413 -179.867325 8.750175 -5.559797 -0.722488 -5.882100 9.861278 0.702592 -10.936859 -0.360575 7.156197 -0.000000 8.774815 -0.000001 -15.937404 18.343370 6.217974 -1.844030 2.498502 -2.507275 -10.163590 4.678939 4.621102 -20.975998 -0.000004 0.000004 -21.226254 2.451692 -3.593992 0.000000 -0.000004 -0.000001 -1.362679 2.240796 -0.746321 -21.334894 0.584908 3.008321 -13.821197 -0.000002 0.000002 -23.887129 -0.249077 -0.839479 -59.916019 2.451147 -1.877721 -0.294025 1.679686 0.833255 -14.218190 0.093214 1.300579 -34.212006 -0.287564 0.967172 -20.033175 0.964536 1.212842 -0.000000 0.000001 -0.000000 -3.440386 0.788233 0.501656 -15.928167 -3.167307 2.999704 -6.338815 -0.000001 0.000001 -18.123411 3.648176 -4.905660 -0.000005 -0.000001 -0.000002 0.669756 15.660102 9.189658 18.575981 25.263142 -53.020672 -178.880081 62.289627 -178.944580 -10.176376 7.821437 -5.513633 2.243540 -5.255032 -3.180153 14.282877 -0.826594 6.952497 -0.000002 -12.690585 0.000001 15.319128 -17.258312 2.944249 1.665663 -1.955920 -2.878295 4.727794 -4.170583 4.993919 11.020514 0.000004 -0.000000 12.109031 -3.735709 -2.866777 0.000001 0.000001 0.000000 1.291984 -1.928548 -1.498088 14.800111 0.567469 3.865604 14.242551 -1.341733 -6.660648 19.631941 0.143926 -0.648241 48.440060 -0.981589 -6.313837 0.353028 -1.511150 -0.031938 20.222769 3.684306 2.316629 18.787247 0.000006 0.000001 10.751611 -0.479869 1.397904 0.000000 0.000000 0.000000 3.273804 0.305947 -0.580111 21.486794 11.830360 2.266131 8.162916 0.000002 0.000001 18.399054 -3.798980 -4.940566 0.000003 0.000002 -0.000001 13.284123 2.121568 -7.799960 -0.119918 -0.937171 27.201378 -17.872757 3.964421 -13.625897 1.679572 -2.116820 1.510854 -0.000000 0.000000 0.000002 -13.423877 -6.490507 -22.375120 0.270433 0.796144 25.383915 13.550170 -1.957183 -0.597167 -1.462078 0.877472 2.972594 0.000000 0.000000 -0.000001 
7.769939 96.146080 231.829407 0.243234 0.371003 1.593109 0.450736 0.264483 1.000617 -0.231260 0.528106 -4.237012 0.915408 -0.846722 12.764422 10.639528 -3.192514 10.467999 -4.155821 -13.255694 -3.087959 3.631952 -16.651974 -14.157616 0.000077 -0.000022 0.000006 0.004718 0.000271 -0.024933 0.690483 -3.692379 -10.637835 -0.689071 3.694222 -10.634272 3.034671 3.575694 10.837773 -70.138344 -60.020107 22.804087 178.495712 -37.475800 -179.841721 8.829088 -5.549284 -0.702251 -5.882102 9.861279 0.702589 -10.936858 -0.360576 7.156197 -0.000001 8.774815 -0.000001 -15.906747 18.357002 6.247651 -1.844030 2.498503 -2.507275 -10.163592 4.678940 4.621103 -20.975998 -0.000003 0.000004 -21.226255 2.451692 -3.593993 0.000000 -0.000004 0.000001 -1.362679 2.240796 -0.746324 -21.334892 0.584907 3.008321 -13.821198 -0.000002 0.000002 -23.887131 -0.249079 -0.839480 -59.881367 2.463678 -1.849178 -0.294024 1.679686 0.833257 -14.218194 0.093214 1.300579 -34.212006 -0.287564 0.967170 -20.033182 0.964534 1.212842 0.000000 0.000001 -0.000000 -3.440386 0.788232 0.501655 -15.928171 -3.167307 2.999704 -6.338817 -0.000001 0.000001 -18.123413 3.648176 -4.905662 -0.000004 -0.000000 -0.000001 0.608052 15.592660 9.062387 18.752977 25.328249 -52.756008 -178.712082 62.034050 -178.911484 -10.330275 7.673873 -5.531199 2.243541 -5.255034 -3.180156 14.282875 -0.826594 6.952494 -0.000002 -12.690591 -0.000002 15.261893 -17.246050 2.956684 1.665665 -1.955921 -2.878296 4.727794 -4.170582 4.993919 11.020514 0.000003 -0.000002 12.109035 -3.735710 -2.866779 0.000001 0.000000 -0.000000 1.291984 -1.928547 -1.498088 14.800114 0.567467 3.865602 14.242554 -1.341736 -6.660648 19.631939 0.143925 -0.648245 48.447163 -0.932520 -6.285376 0.353029 -1.511149 -0.031941 20.222773 3.684304 2.316628 18.787247 0.000003 -0.000002 10.751612 -0.479866 1.397903 0.000000 -0.000001 -0.000000 3.273803 0.305946 -0.580111 21.486790 11.830360 2.266130 8.162916 0.000001 -0.000001 18.399055 -3.798977 -4.940569 0.000003 0.000001 -0.000001 13.417253 2.159010 -7.081690 -0.116073 -0.969362 25.749149 -18.129095 3.811941 -13.228658 1.679705 -2.119712 1.438297 0.000000 0.000000 0.000001 -13.348778 -6.529518 -22.227024 0.252106 0.773775 25.521065 13.336630 -2.080724 -1.166505 -1.462110 0.869313 3.001398 -0.000000 0.000000 -0.000001 
7.445396 96.246857 232.122040 0.358678 0.640865 1.784485 0.446775 0.245165 0.900484 -0.246655 0.461495 -4.278800 0.854695 -0.915792 12.693931 10.661333 -3.203481 10.343127 -4.173174 -13.382356 -3.071318 3.672879 -16.842123 -14.186744 0.000077 -0.000022 0.000006 0.002990 0.007731 -0.032945 0.688335 -3.683260 -10.636738 -0.693985 3.709000 -10.631701 3.135966 3.468183 10.765849 -70.350586 -59.904198 22.914282 178.577332 -37.396179 -179.865585 8.852298 -5.519799 -0.641474 -5.882101 9.861277 0.702590 -10.936860 -0.360575 7.156196 0.000001 8.774812 -0.000002 -15.875562 18.361031 6.263913 -1.844030 2.498502 -2.507275 -10.163590 4.678938 4.621104 -20.975994 -0.000004 0.000004 -21.226250 2.451693 -3.593992 0.000000 -0.000005 -0.000001 -1.362681 2.240796 -0.746322 -21.334888 0.584906 3.008321 -13.821195 -0.000003 0.000003 -23.887133 -0.249079 -0.839479 -59.844032 2.467583 -1.815165 -0.294024 1.679686 0.833254 -14.218192 0.093213 1.300579 -34.212002 -0.287566 0.967173 -20.033176 0.964535 1.212843 0.000000 0.000001 -0.000000 -3.440385 0.788232 0.501655 -15.928171 -3.167306 2.999706 -6.338817 -0.000001 0.000001 -18.123413 3.648173 -4.905661 -0.000004 0.000001 -0.000002 0.558844 15.557921 8.977397 18.810558 25.299397 -52.665562 -178.540359 61.786339 -178.913330 -10.514523 7.507550 -5.389178 2.243541 -5.255032 -3.180155 14.282878 -0.826592 6.952495 -0.000001 -12.690592 -0.000002 15.277900 -17.231365 2.956507 1.665667 -1.955922 -2.878296 4.727795 -4.170583 4.993917 11.020513 0.000004 -0.000001 12.109033 -3.735711 -2.866778 0.000001 0.000002 0.000000 1.291985 -1.928549 -1.498087 14.800111 0.567469 3.865603 14.242553 -1.341736 -6.660650 19.631939 0.143925 -0.648244 48.517651 -0.893156 -6.259202 0.353028 -1.511150 -0.031941 20.222771 3.684306 2.316629 18.787245 0.000006 0.000000 10.751610 -0.479867 1.397904 0.000000 -0.000001 -0.000000 3.273805 0.305947 -0.580109 21.486790 11.830363 2.266132 8.162916 0.000002 0.000001 18.399050 -3.798979 -4.940567 0.000003 0.000001 -0.000001 13.482318 2.265025 -6.568188 -0.113163 -0.983961 24.471195 -18.342718 3.690114 -12.818050 1.677305 -2.117086 1.383173 0.000000 0.000000 0.000002 -13.289030 -6.512062 -22.210405 0.237601 0.748869 25.678722 13.100793 -2.250835 -1.528312 -1.462297 0.853530 3.048795 0.000000 0.000000 -0.000001 
